<svg width="50" height="50" viewBox="0 0 50 50" fill="none" xmlns="http://www.w3.org/2000/svg">
<circle cx="25" cy="25" r="25" fill="#CF0303"/>
<path fill-rule="evenodd" clip-rule="evenodd" d="M24.231 9.40996C20.8818 9.77873 17.9898 12.0935 16.9374 15.2479C16.6007 16.2568 16.5057 16.8587 16.5094 17.9573C16.5137 19.2608 16.6899 20.0515 17.2425 21.2475C17.7779 22.4064 18.9563 23.8527 20.1308 24.7929C20.4078 25.0146 20.6426 25.2169 20.6528 25.2426C20.663 25.2684 20.4981 25.3274 20.2863 25.3737C19.1358 25.6257 17.6438 26.22 16.4782 26.8905C12.8418 28.9822 10.3566 32.5256 9.57704 36.7302C9.40855 37.6388 9.31937 39.1594 9.41281 39.5299C9.52272 39.9659 9.98628 40.432 10.418 40.5405C10.866 40.6532 39.134 40.6532 39.582 40.5405C40.0137 40.432 40.4773 39.9659 40.5872 39.5299C40.6806 39.1594 40.5915 37.6388 40.423 36.7302C39.5721 32.1411 36.6931 28.3562 32.5422 26.3697C31.7644 25.9975 30.6181 25.5882 29.8489 25.4081C29.5648 25.3415 29.3324 25.2677 29.3324 25.244C29.3324 25.2203 29.4748 25.0995 29.649 24.9756C30.1491 24.6198 31.2966 23.4751 31.7364 22.8935C33.3361 20.7779 33.8537 18.5449 33.3047 16.1271C32.5317 12.7226 29.8161 10.1244 26.3913 9.51259C25.6257 9.37582 24.8682 9.33982 24.231 9.40996ZM23.8615 10.8659C20.6233 11.4575 18.28 13.9655 17.9255 17.219C17.8375 18.027 17.9283 18.9877 18.1721 19.8276C18.8732 22.2438 20.7889 24.1038 23.2533 24.7611C23.8255 24.9137 24.0273 24.9336 25 24.9336C25.9727 24.9336 26.1745 24.9137 26.7467 24.7611C28.4546 24.3056 29.9464 23.2494 30.8972 21.8225C31.8163 20.4433 32.2475 18.7309 32.0668 17.1786C31.7184 14.1864 29.7149 11.8233 26.8533 11.0295C26.3384 10.8867 26.0576 10.8535 25.2 10.8338C24.6317 10.8208 24.0295 10.8353 23.8615 10.8659ZM22.5483 26.4459C20.5828 26.6067 18.6681 27.2218 17.0018 28.2278C13.5983 30.2825 11.3636 33.7322 10.8731 37.6886C10.8346 37.9988 10.8032 38.4555 10.8032 38.7036V39.1545H25H39.1968V38.7036C39.1968 37.1821 38.6642 35.0765 37.89 33.5377C35.8181 29.4197 31.9509 26.8117 27.3731 26.4451C26.4096 26.368 23.4952 26.3685 22.5483 26.4459Z" fill="#FBF6F0" stroke="#FBF6F0"/>
</svg>
