<svg width="266" height="244" viewBox="0 0 266 244" fill="none" xmlns="http://www.w3.org/2000/svg">
<path d="M217.261 60.1005C203.579 74.7287 182.907 159.211 154.068 116.444C133.851 132.732 147.125 169.141 122.247 176.825C100.396 183.574 52.125 110.592 69.137 116.562C89.1751 127.107 113.434 109.05 110.422 116.505C101.593 138.364 92.1795 174.805 72.5697 190.355C57.2923 202.469 38.7863 215.528 20.1898 216.712C13.5124 217.136 4.71664 215.658 -1.49529 214.585" stroke="black" stroke-width="3" stroke-linecap="round"/>
<path d="M216.952 59.5204C215.213 60.4152 213.52 61.3882 211.645 62.0306C205.877 64.0069 200.375 66.6509 194.551 68.4639C190.503 69.7244 186.651 70.5599 182.554 70.7545" stroke="black" stroke-width="3" stroke-linecap="round"/>
<path d="M217.316 60.5775C217.936 61.7236 217.795 63.2175 217.798 64.5031C217.806 67.4351 217.737 70.378 217.402 73.345C217.168 75.4139 216.793 77.4681 216.896 79.5066C216.988 81.3129 217.174 83.0238 217.031 84.8551" stroke="black" stroke-width="3" stroke-linecap="round"/>
</svg>
