<svg width="43" height="16" viewBox="0 0 43 16" fill="none" xmlns="http://www.w3.org/2000/svg">
<path fill-rule="evenodd" clip-rule="evenodd" d="M7.48571 0.987314C7.34925 1.04991 5.64665 2.6739 3.70205 4.59611L0.166504 8.09097V8.45334V8.81571L3.70205 12.3107C5.7932 14.3779 7.35033 15.8538 7.5135 15.9235C8.09515 16.1719 8.6849 15.7409 8.6849 15.0675V14.6942L5.97862 12.0225L3.27225 9.35095L22.5673 9.33001L41.8623 9.30914L42.1037 9.04294C42.4374 8.67479 42.4374 8.23189 42.1037 7.86373L41.8623 7.59753L22.5853 7.55678L3.30822 7.51603L5.95653 4.90787C8.78621 2.12113 8.87338 2.01069 8.65141 1.49403C8.43233 0.984218 7.94959 0.774341 7.48571 0.987314Z" fill="black"/>
</svg>
