<svg width="260" height="309" viewBox="0 0 260 309" fill="none" xmlns="http://www.w3.org/2000/svg">
<path d="M232.148 172.103C214.41 164.698 211.065 162.577 191.255 158.018C168.188 152.711 137.59 145.661 116.493 152.205C97.9629 157.953 127.471 185.147 135.277 168.798C138.361 162.34 135.697 156.741 129.296 150.631C110.524 132.713 81.2121 124.53 58.9842 119.646C41.6671 115.841 21.6429 112.94 8.56274 122.656C3.86609 126.145 -1.11855 132.897 -4.62202 137.695" stroke="black" stroke-width="3" stroke-linecap="round"/>
<path d="M232.285 172.898C230.599 172.977 228.897 172.947 227.27 173.373C222.264 174.684 217.041 175.132 212.094 176.649C208.655 177.703 205.598 179.091 202.755 181.302" stroke="black" stroke-width="3" stroke-linecap="round"/>
<path d="M231.903 171.566C231.64 169.988 230.665 168.491 229.909 167.129C228.185 164.022 226.403 160.95 224.43 158.009C223.054 155.958 221.593 154.006 220.459 151.789C219.455 149.824 218.57 147.905 217.395 146.052" stroke="black" stroke-width="3" stroke-linecap="round"/>
</svg>
