<svg width="239" height="94" viewBox="0 0 239 94" fill="none" xmlns="http://www.w3.org/2000/svg">
<path d="M2 91C4.97634 72.0539 10.0301 54.1256 16.9477 36.2883C18.1648 33.1498 18.8637 29.2307 20.9684 26.5406C23.1095 23.8038 25.6731 21.4358 27.8273 18.7041C31.0021 14.6782 33.9636 10.5576 37.4771 6.80612C38.0456 6.19905 40.9161 2.62937 42.1127 2.26672C42.6754 2.0962 45.5308 7.77759 45.7077 8.07237C49.1446 13.7978 52.5955 19.4588 56.1853 25.0832C57.6216 27.3336 60.0861 29.8327 60.9392 32.4179C62.4272 36.9272 63.0311 41.0533 65.6458 45.2238C66.5861 46.7235 67.8643 47.7713 68.8388 49.1659C70.9286 52.1565 78.4773 48.4645 80.8064 47.5173C85.0271 45.801 89.1393 43.2894 93.0105 40.8755C96.6867 38.5832 101.842 39.3915 105.877 39.6331C108.942 39.8167 112.093 39.7344 115.101 40.4454C117.242 40.9516 119.272 41.7192 121.487 41.8789C129.004 42.4213 136.699 41.4384 144.263 41.7595C147.38 41.8918 150.488 41.9328 153.605 41.9984C155.798 42.0445 158.635 41.8331 160.653 42.9063C161.957 43.5995 162.853 44.7469 164.248 45.3671C165.849 46.0784 167.559 46.4605 169.239 46.9201C171.004 47.403 172.736 47.7674 174.489 48.2102C175.448 48.4523 176.45 48.4192 177.399 48.7119C178.064 48.9172 179.835 50.661 180.284 50.6233C181.116 50.5532 180.47 48.9305 180.757 48.1385C181.641 45.7004 182.974 43.3342 184.21 41.0666C185.497 38.7067 186.767 36.3223 188.751 34.4726C191.46 31.9466 194.439 29.9406 196.887 27.114C202.282 20.8858 208.044 14.0446 211.504 6.47164C211.921 5.55929 213.494 1.63292 214.862 2.02781C216.637 2.54009 217.747 10.7576 218.244 12.4923C219.469 16.7582 220.28 21.1312 221.437 25.4177C223.223 32.0307 225.754 38.1445 228.533 44.4114C229.983 47.6822 231.49 50.8349 231.797 54.4459C232.058 57.5265 231.784 60.6307 231.891 63.7158C231.962 65.7387 232.571 68.3277 232.932 70.3577C233.321 72.5451 233.616 74.8108 234.209 76.9518C234.502 78.0089 235.474 78.3949 235.676 79.4126C235.947 80.7819 236.014 82.4779 236.125 83.8803C236.234 85.2535 235.404 89.7099 237 89.7099" stroke="black" stroke-width="3" stroke-linecap="round"/>
<path d="M200.175 53.5965C200.175 45.2017 199.283 35.91 206.202 29.9655C207.416 28.922 209.139 27.5454 210.852 27.5454C212.019 27.5454 213.108 35.8783 213.319 36.9883C214.885 45.2052 213.841 53.1255 213.841 61.2837" stroke="black" stroke-width="3" stroke-linecap="round"/>
<path d="M28.0674 46.7635C28.0674 40.2629 30.9006 33.8272 34.8056 28.7318C36.0323 27.1309 37.1229 25.303 38.6966 24.0103C40.7757 22.3025 40.0253 26.0936 40.0253 27.2607C40.0253 34.9005 40.0253 42.5403 40.0253 50.18" stroke="black" stroke-width="3" stroke-linecap="round"/>
<path d="M158 91.8414C158.028 91.4012 158.112 91.1298 158.271 90.6606C159.086 88.252 160.063 85.8633 161.186 83.5933C161.806 82.3405 162.442 81.0535 163.636 80.3153C164.664 79.6791 165.96 79.445 167.102 79.1873C169.485 78.6496 172.072 77.9236 174.534 78.0065C176.118 78.0599 177.562 78.83 178.983 79.4693C180.629 80.2097 181.41 81.1051 182.576 82.5359C183.139 83.2265 183.784 83.9835 184.017 84.8799C184.184 85.5229 184.124 86.2092 184.271 86.8538C184.653 88.5214 185 90.2562 185 92" stroke="black" stroke-width="3" stroke-linecap="round"/>
<path d="M61 90.8414C61.0282 90.4012 61.1125 90.1298 61.2712 89.6606C62.0859 87.252 63.0631 84.8633 64.1864 82.5933C64.8064 81.3405 65.4416 80.0535 66.6356 79.3153C67.6645 78.6791 68.9597 78.445 70.1017 78.1873C72.4852 77.6496 75.0721 76.9236 77.5339 77.0065C79.1178 77.0599 80.5619 77.83 81.9831 78.4693C83.6289 79.2097 84.41 80.1051 85.5763 81.5359C86.1392 82.2265 86.7839 82.9835 87.0169 83.8799C87.1841 84.5229 87.1236 85.2092 87.2712 85.8538C87.653 87.5214 88 89.2562 88 91" stroke="black" stroke-width="3" stroke-linecap="round"/>
<path d="M67 91.4649C67.2079 90.1184 67.7549 88.7773 68.4419 87.6072C69.0784 86.5231 69.824 85.9958 71.0121 85.6853C72.1446 85.3893 73.4331 85.3596 74.5935 85.1862C75.7467 85.0138 76.9317 84.8803 78.0765 85.1675C79.6168 85.554 80.4359 86.7717 81.1991 88.069C81.7037 88.9267 82.0117 89.8727 81.9997 90.8771C81.9944 91.3192 81.8389 91.297 81.4566 91.297C80.7913 91.297 80.1829 91.3692 79.5184 91.4649C78.594 91.5981 77.6882 91.8412 76.7563 91.9314C75.4304 92.0597 74.0611 91.9687 72.7302 91.9687C71.708 91.9687 70.784 91.9309 69.7855 91.7215C69.6224 91.6872 68.3819 91.6389 68.2874 91.4789C68.127 91.2072 68.5564 90.5585 68.6619 90.364C68.9702 89.7961 69.2963 89.2251 69.8791 88.8993C69.8939 88.8911 71.3609 88.387 71.3772 88.6474C71.3872 88.8064 71.1102 89.0914 71.0355 89.2072C71.0074 89.2507 70.792 89.6546 70.792 89.6177C70.792 89.1936 70.8608 88.7545 70.9419 88.3395C71.0329 87.8734 70.9174 89.2344 70.9138 89.3098C70.8838 89.9253 71.1409 89.2137 71.2087 89.0719C71.447 88.5739 72.022 87.0652 71.9999 87.6165C71.971 88.335 71.627 89.0395 71.6862 89.7669C71.7361 90.3796 72.4655 89.8431 72.6693 89.6643C72.9726 89.3985 73.1909 89.0893 73.3482 88.7221C73.4865 88.3992 73.3931 88.9835 73.4043 89.0579C73.485 89.5914 74.2894 88.9829 74.4905 88.8713C74.7193 88.7444 74.9773 88.5972 75.1927 88.4422C75.2413 88.4072 75.3537 88.2741 75.3331 88.3302C75.176 88.7582 74.9814 90.5029 75.6609 89.3798C75.792 89.163 75.9678 88.336 75.7311 89.0626C75.5947 89.4811 75.4497 90.3551 76.1852 90.2288C76.7621 90.1296 77.558 88.8778 78.1046 89.2725C78.5392 89.5863 79.1379 90.2834 79.5933 89.711C79.8684 89.3652 80.0696 89.0234 79.7993 88.6194C79.6596 88.4106 79.2308 88.4235 79.0222 88.4049C78.4427 88.353 77.884 88.3274 77.3181 88.1763C76.3087 87.9067 75.293 87.5378 74.2377 87.4906C73.8856 87.4748 72.8928 87.9116 73.2265 87.7984C74.2241 87.46 75.1788 86.8074 76.2788 86.9215C76.6038 86.9552 77.7863 87.0156 77.7863 87.5186" stroke="black" stroke-width="3" stroke-linecap="round"/>
<path d="M164.408 91.801C163.449 90.7851 164.376 88.9445 165.185 88.1908C165.862 87.5598 166.952 86.871 167.828 86.6907C169.442 86.3584 171.179 85.8398 172.835 86.0478C173.789 86.1675 174.784 86.6319 175.603 87.144C176.696 87.8269 177.038 88.4935 177.64 89.625C177.956 90.2169 178.38 91.9493 177.345 91.9493C174.945 91.9493 172.536 91.8781 170.138 91.9576C168.601 92.0085 167.327 92.1797 166.009 91.1416C165.226 90.5246 164.903 90.0867 165.737 89.4436C166.621 88.7623 168.037 89.4272 169.057 89.4272C170.363 89.4272 171.513 89.0454 172.758 88.6936C173.961 88.3535 174.206 88.5366 174.81 89.5096C174.992 89.803 174.904 90.2727 174.904 90.6141" stroke="black" stroke-width="3" stroke-linecap="round"/>
<path d="M104.729 42.3047C100.623 48.3872 100.922 55.9715 99.0654 62.7794" stroke="black" stroke-width="3" stroke-linecap="round"/>
<path d="M120.847 43.6116C118.639 46.9237 119.976 53.6032 119.976 57.5034C119.976 59.3416 120.045 61.0108 119.54 62.7794" stroke="black" stroke-width="3" stroke-linecap="round"/>
<path d="M143.064 42.3047C144.69 48.8614 144.463 55.2022 144.806 61.9081" stroke="black" stroke-width="3" stroke-linecap="round"/>
</svg>
