<svg width="127" height="187" viewBox="0 0 127 187" fill="none" xmlns="http://www.w3.org/2000/svg">
<path d="M7.42827 37.4722C4.95082 37.3174 3.02695 36.229 2.32812 33.6976C1.46666 30.5772 2.33347 29.0531 4.55241 27.0023C5.73417 25.91 7.0445 26.2948 8.34944 25.6767C8.45934 25.6246 8.12137 25.5359 8.0349 25.4969C7.39801 25.2103 7.16352 25.0891 6.82164 24.4297C6.08379 23.0067 6.29214 20.8452 6.51833 19.3071C6.81208 17.3096 9.51414 16.7466 11.2815 16.6559C15.1542 16.4573 20.0657 17.6678 21.6952 21.5876C22.4899 23.4992 23.1577 25.6081 23.3578 27.6763C23.5428 29.5876 23.7828 32.4017 23.1556 34.2369C22.3656 36.5485 21.0212 38.9637 19.2462 40.6626C17.7535 42.0914 15.9755 43.39 13.8989 43.9092C12.1542 44.3453 10.7202 45.1411 8.9336 44.2237C7.14655 43.306 6.14303 43.0215 5.38372 41.1232C5.0308 40.2409 4.79956 39.7775 4.79956 38.7865C4.79956 38.1337 5.33041 38.3189 5.8106 38.0788" stroke="black" stroke-width="3" stroke-linecap="round"/>
<path d="M11.114 185.048C9.59575 185.048 16.0252 179.621 16.35 179.363C21.3491 175.388 27.0296 172.139 32.7064 169.24C36.5539 167.275 40.6278 166.271 44.6246 164.702C53.1562 161.354 61.268 156.292 69.3087 151.936C78.0321 147.211 85.2855 139.738 94.7908 136.602C99.9537 134.899 104.665 132.429 109.252 129.521C112.018 127.768 114.932 124.528 117.929 123.362C119.921 122.588 122.337 122.083 124.212 121.118C125.476 120.468 125.11 118.953 125.11 117.777C125.11 113.097 113.652 111.327 111.072 110.322C102.819 107.108 95.2913 101.795 86.7622 99.4262C83.5605 98.5369 83.0462 92.4326 81.5262 89.8268C79.9617 87.1449 79.4006 83.8692 77.5119 81.3993C75.7137 79.0478 74.2856 76.7516 73.0488 74.0439C69.8111 66.9561 64.7617 60.8577 61.6791 53.6483C59.0591 52.4438 57.9826 50.1658 55.5591 48.4438C53.3812 46.8963 51.7273 46.5569 50.0591 44.4438C48.6867 42.7054 46.5896 42.7234 46.4697 40.4438C46.1876 35.0839 50.9038 30.9287 50.9038 25.4438C50.9038 22.4967 51.0428 17.0147 52.4038 14.4438C53.461 12.4468 52.4038 4.74398 52.4038 2.44376C52.4038 0.529767 46.0643 5.37165 45.0235 6.27466C40.7415 9.98997 39.1618 15.2548 33.7785 17.8937C31.1298 19.1921 29.4021 21.8575 26.9218 23.0549C24.1516 24.3923 24.8554 23.4345 22.5591 25.4438" stroke="black" stroke-width="3" stroke-linecap="round"/>
<path d="M64.9839 72.1665C63.5594 72.1665 62.9327 72.5937 61.8067 73.5433C58.5063 76.3268 54.9382 78.7141 51.4278 81.2215C46.8264 84.5083 41.0972 87.846 37.2893 92.077C28.7641 101.549 22.3079 113.115 19.5234 125.491C17.0892 136.309 22.0916 147.191 22.0916 157.925C22.0916 160.37 22.7247 162.589 22.9918 164.994C23.0879 165.859 22.7289 167.398 23.3095 168.145C24.5813 169.78 24.58 172.121 26.3808 173.202" stroke="black" stroke-width="3" stroke-linecap="round"/>
<path d="M54.9756 102.668C63.6758 103.393 70.2973 106.169 72.9003 114.979C73.6499 117.516 74.5154 117.908 74.5154 120.592C74.5154 122.402 74.5154 124.211 74.5154 126.02" stroke="black" stroke-width="3" stroke-linecap="round"/>
<path d="M36.7185 121.499C37.0193 119.861 37.5925 118.314 37.5925 116.643C37.8596 115.575 38.1946 115.444 38.3111 113.662C39.7633 112.992 41.3743 112.65 42.8754 112.098C44.6656 111.441 46.4473 110.754 48.3622 110.574C53.1545 110.122 58.6003 110.344 62.9483 112.633C66.1718 114.329 66.2598 117.196 66.2598 120.469C66.2598 124.965 63.5122 129.322 60.3457 132.307C56.9423 135.516 52.0426 136.437 47.595 136.92C44.2192 137.287 40.4637 136.596 38.1946 133.89C36.2609 131.585 36.1604 128.99 36.1941 126.121C36.2125 124.557 36.4371 123.031 36.7185 121.499Z" stroke="black" stroke-width="3" stroke-linecap="round"/>
<path d="M46.6825 118.566C45.672 119.576 44.5077 120.381 43.74 121.615C43.5581 121.908 41.9593 125.739 42.6135 125.84C43.2953 125.944 44.9373 124.467 45.4394 124.082C46.2728 123.442 47.7776 123.024 48.3722 122.169C49.0394 121.21 48.3154 120.219 47.3137 119.984C46.4235 119.774 45.2677 123.288 45.1481 123.946C44.7152 126.327 46.7923 122.706 46.9544 121.965C47.0067 121.725 47.2369 119.931 46.9544 119.828C46.2461 119.571 45.1913 122.13 45.0121 122.528C44.7507 123.109 44.5725 123.53 44.5849 124.16C44.5904 124.444 44.9241 125.177 44.8179 125.403C44.7036 125.646 43.536 124.243 43.536 125.228C43.536 126.303 44.0462 126.206 45.051 126.267C46.2135 126.337 47.1597 126.78 47.9935 125.801C48.8711 124.77 49.2757 123.53 49.5667 122.237C49.8155 121.131 49.8126 120.248 49.5181 119.168C49.3342 118.494 46.9811 119.077 46.5077 119.168C45.3467 119.392 43.8386 120.081 43.2253 121.11C42.8921 121.669 42.3306 122.02 42.0017 122.586C41.543 123.376 41.6132 124.329 41.6132 125.208" stroke="black" stroke-width="3" stroke-linecap="round"/>
<path d="M13.9689 60.3938C15.9152 61.2785 18.3428 62.0266 20.059 63.3632C20.6289 63.8071 20.8876 64.5265 21.3167 65.0843C22.4047 66.4987 23.8304 68.0655 24.1159 69.8884C24.3521 71.3963 24.6019 72.9568 24.6455 74.4843C24.6628 75.09 24.3195 75.5984 24.22 76.1865C23.9553 77.7503 23.2252 79.1796 22.5367 80.6123C21.229 83.333 19.4001 86.1167 16.9383 87.8751C15.9345 88.592 14.8635 89.6719 13.6284 89.6719" stroke="black" stroke-width="3" stroke-linecap="round"/>
<path d="M13.2881 72.6497C13.4724 73.94 13.6285 75.1133 13.6285 76.4324C13.6285 76.8142 13.2049 78.8997 13.7231 78.8912C14.7058 78.8751 16.3905 76.9946 16.6641 76.0825C16.8988 75.3004 16.2779 74.5218 15.8509 73.9453C15.7669 73.832 14.2508 71.6514 13.9879 72.2431C13.6924 72.9079 14.0381 74.4836 14.3472 75.0896C14.6703 75.7228 14.6499 76.1918 14.6499 76.9053" stroke="black" stroke-width="3" stroke-linecap="round"/>
</svg>
