<svg width="200" height="99" viewBox="0 0 200 99" fill="none" xmlns="http://www.w3.org/2000/svg">
<g clip-path="url(#clip0_62_121)">
<path d="M58.859 16.6741C60.179 16.4286 61.2994 16.0142 62.2203 15.4309C63.1719 14.817 64.0314 13.9882 64.7988 12.9445C65.5969 11.8701 66.3797 10.4734 67.1471 8.75441C67.7917 7.37307 68.3903 6.1452 68.9428 5.07082C69.5261 3.96574 70.1554 3.10624 70.8307 2.49231C71.506 1.87838 72.3195 1.57141 73.2711 1.57141C74.0999 1.57141 74.7905 1.83233 75.3431 2.35417C75.8956 2.84532 76.1719 3.48995 76.1719 4.28806C76.1719 4.96338 75.957 5.60801 75.5273 6.22195C75.0975 6.83588 74.5603 7.31167 73.9157 7.64933L72.4883 6.22195C72.3348 6.00707 72.1813 5.85358 72.0278 5.76149C71.8744 5.66941 71.6748 5.62336 71.4293 5.62336C71.1837 5.62336 70.9074 5.77684 70.6005 6.08381C70.3242 6.39078 70.0172 6.86657 69.6796 7.5112C69.3419 8.12513 68.9428 8.93859 68.4824 9.95158C67.7457 11.4557 67.055 12.6836 66.4104 13.6352C65.7657 14.5561 65.0751 15.2928 64.3384 15.8453C63.6323 16.3979 62.7882 16.8737 61.8059 17.2727V17.4109C63.1872 17.5336 64.369 17.8406 65.3513 18.3317C66.3643 18.7922 67.2085 19.4522 67.8838 20.3117C68.5898 21.1712 69.1884 22.2456 69.6796 23.5348C69.9865 24.2408 70.2628 24.9008 70.5084 25.5148C70.7539 26.1287 70.9842 26.6966 71.199 27.2184C71.4139 27.7096 71.5981 28.17 71.7516 28.5998C72.2734 29.889 72.7185 30.8713 73.0869 31.5466C73.4552 32.222 73.8236 32.6824 74.192 32.928C74.591 33.1736 75.0361 33.2963 75.5273 33.2963C75.957 33.2963 76.3868 33.2196 76.8165 33.0661C77.2463 32.8819 77.6914 32.6364 78.1518 32.3294L78.7964 33.4345C78.1825 34.0177 77.4304 34.5396 76.5402 35C75.65 35.4298 74.7138 35.6446 73.7315 35.6446C72.8106 35.6446 71.9972 35.4758 71.2911 35.1381C70.6158 34.8312 69.9865 34.2633 69.4033 33.4345C68.8507 32.575 68.2829 31.4085 67.6996 29.9351C67.5154 29.5053 67.3159 29.0295 67.101 28.5077C66.9169 27.9858 66.7173 27.4333 66.5025 26.8501C66.2876 26.2668 66.0727 25.6836 65.8578 25.1003C65.2746 23.3813 64.63 22.0614 63.9239 21.1405C63.2486 20.1889 62.4812 19.5136 61.6217 19.1145C60.7929 18.7155 59.8413 18.4545 58.7669 18.3317L58.859 16.6741ZM54.1164 4.19597L50.2486 3.45925L50.4328 2.03186H62.2663L62.0822 3.45925L58.0762 4.19597L56.9712 32.974L61.2994 33.5726L61.1152 35H48.9133L49.0975 33.5726L52.9192 32.974L54.1164 4.19597ZM96.1665 23.5809L87.0496 23.8111L86.2669 35H82.4912L83.9186 14.8323C83.98 14.157 83.8879 13.6812 83.6423 13.4049C83.4274 13.1287 83.0898 12.9905 82.6293 12.9905C82.3224 12.9905 81.9386 13.0673 81.4782 13.2208C81.0178 13.3436 80.4652 13.5431 79.8206 13.8194L79.3141 12.392C79.7131 12.1464 80.2043 11.9162 80.7875 11.7013C81.3708 11.4557 81.9847 11.2562 82.6293 11.1027C83.2739 10.9492 83.8725 10.8725 84.4251 10.8725C85.2846 10.8725 85.9599 11.0413 86.451 11.379C86.9422 11.7166 87.2799 12.2385 87.464 12.9445C87.6789 13.6198 87.7403 14.4793 87.6482 15.523C87.5868 16.5667 87.5101 17.6104 87.418 18.6541C87.3566 19.6977 87.2799 20.7568 87.1878 21.8312H96.3047L97.1795 11.6092H100.955L99.3897 31.5466C99.359 32.222 99.4204 32.7131 99.5738 33.0201C99.758 33.327 100.096 33.4805 100.587 33.4805C101.017 33.4805 101.477 33.3731 101.968 33.1582C102.459 32.9433 102.966 32.6824 103.488 32.3754L104.086 33.6647C103.656 33.9717 103.119 34.2786 102.475 34.5856C101.861 34.8926 101.231 35.1381 100.587 35.3223C99.9729 35.5372 99.3897 35.6446 98.8371 35.6446C97.6093 35.6446 96.7191 35.2916 96.1665 34.5856C95.6447 33.8796 95.4451 32.8205 95.5679 31.4085L96.1665 23.5809ZM105.26 13.1287C105.721 12.7296 106.258 12.3613 106.872 12.0236C107.486 11.6859 108.131 11.4097 108.806 11.1948C109.481 10.9799 110.095 10.8725 110.648 10.8725C111.814 10.8725 112.674 11.1948 113.226 11.8394C113.809 12.484 114.04 13.4356 113.917 14.6942L112.766 27.817C112.612 29.5974 112.628 30.902 112.812 31.7308C112.996 32.5289 113.579 32.928 114.561 32.928C115.175 32.928 115.713 32.7591 116.173 32.4215C116.633 32.0531 117.079 31.4699 117.508 30.6718C117.938 29.8737 118.368 28.8146 118.798 27.4947L124.231 11.4711H127.27L126.533 31.5006C126.502 32.2373 126.564 32.7591 126.717 33.0661C126.901 33.3731 127.239 33.5266 127.73 33.5266C128.099 33.5266 128.528 33.4498 129.02 33.2963C129.511 33.1429 130.033 32.9433 130.585 32.6978L131.092 34.1251C130.754 34.34 130.355 34.5396 129.894 34.7237C129.465 34.9079 129.02 35.0614 128.559 35.1842C128.099 35.3377 127.638 35.4451 127.178 35.5065C126.748 35.5986 126.349 35.6446 125.981 35.6446C124.661 35.6446 123.755 35.2456 123.264 34.4475C122.773 33.6187 122.604 32.4522 122.757 30.948L123.909 18.4238L123.632 18.3778L120.363 28.5537C119.872 30.1499 119.304 31.4699 118.659 32.5136C118.046 33.5573 117.309 34.34 116.449 34.8619C115.62 35.3837 114.592 35.6446 113.364 35.6446C111.553 35.6446 110.279 35.0307 109.543 33.8028C108.837 32.5443 108.606 30.4569 108.852 27.5407L109.911 15.0165C109.972 14.2184 109.926 13.6812 109.773 13.4049C109.619 13.098 109.312 12.9445 108.852 12.9445C108.391 12.9445 107.885 13.0673 107.332 13.3129C106.811 13.5584 106.35 13.85 105.951 14.1877L105.26 13.1287ZM149.776 26.9421L150.099 26.9882C150.682 25.8831 151.219 24.8394 151.71 23.8571C152.232 22.8441 152.723 21.8926 153.184 21.0024C153.675 20.1122 154.151 19.2373 154.611 18.3778C155.072 17.5183 155.547 16.6741 156.039 15.8453C156.745 14.7096 157.405 13.7733 158.018 13.0366C158.632 12.2999 159.262 11.7473 159.906 11.379C160.582 11.0106 161.272 10.8264 161.978 10.8264C162.838 10.8264 163.513 11.072 164.004 11.5632C164.526 12.0543 164.787 12.6682 164.787 13.4049C164.787 14.111 164.603 14.7096 164.235 15.2007C163.866 15.6918 163.36 16.1062 162.715 16.4439L161.84 15.3388C161.503 14.8784 161.103 14.6328 160.643 14.6021C160.183 14.5714 159.707 14.7249 159.216 15.0626C158.724 15.3695 158.218 15.8914 157.696 16.6281C157.328 17.1499 156.959 17.7332 156.591 18.3778C156.223 18.9917 155.839 19.6671 155.44 20.4038C155.87 21.0791 156.299 21.7851 156.729 22.5218C157.159 23.2279 157.573 23.9492 157.972 24.6859C158.402 25.4227 158.817 26.1594 159.216 26.8961C159.952 28.2161 160.536 29.2751 160.965 30.0732C161.426 30.8406 161.794 31.4238 162.07 31.8229C162.347 32.1913 162.592 32.4368 162.807 32.5596C163.022 32.6824 163.237 32.7438 163.452 32.7438C163.789 32.7438 164.142 32.5596 164.511 32.1913C164.91 31.8229 165.294 31.4238 165.662 30.9941L166.491 32.0071C166.122 32.5289 165.693 33.0815 165.201 33.6647C164.71 34.2172 164.173 34.6777 163.59 35.046C163.007 35.4451 162.377 35.6446 161.702 35.6446C161.119 35.6446 160.612 35.4911 160.183 35.1842C159.753 34.8772 159.292 34.34 158.801 33.5726C158.31 32.7745 157.681 31.6387 156.913 30.1653C156.545 29.4593 156.146 28.7379 155.716 28.0012C155.317 27.2338 154.918 26.497 154.519 25.791C154.151 25.085 153.782 24.4557 153.414 23.9032C152.984 24.7627 152.554 25.5761 152.125 26.3436C151.695 27.111 151.311 27.8477 150.974 28.5537C150.636 29.229 150.314 29.9044 150.007 30.5797L149.684 35H145.863L146.784 20.9563C144.972 22.4604 143.453 23.7497 142.225 24.8241C140.997 25.8678 140.015 26.758 139.278 27.4947C138.541 28.2007 138.004 28.7993 137.667 29.2904C137.36 29.7509 137.206 30.1499 137.206 30.4876C137.206 30.7946 137.268 31.0555 137.39 31.2704C137.513 31.4852 137.728 31.7001 138.035 31.915L139.508 32.8819C139.355 33.7414 138.987 34.4168 138.403 34.9079C137.851 35.3991 137.16 35.6446 136.331 35.6446C135.503 35.6446 134.827 35.3837 134.305 34.8619C133.784 34.3093 133.523 33.6187 133.523 32.7898C133.523 31.9917 133.784 31.1629 134.305 30.3034C134.827 29.4132 135.641 28.4309 136.746 27.3565C137.851 26.2822 139.263 25.039 140.982 23.6269C140.675 22.7674 140.353 21.9233 140.015 21.0944C139.677 20.2656 139.309 19.3908 138.91 18.4699C138.388 17.1806 137.912 16.1983 137.482 15.523C137.083 14.817 136.73 14.3105 136.423 14.0035C136.116 13.6966 135.84 13.5431 135.595 13.5431C135.226 13.5431 134.858 13.7273 134.49 14.0956C134.121 14.4333 133.707 14.8323 133.246 15.2928L132.371 14.3258C132.832 13.7733 133.323 13.2361 133.845 12.7143C134.367 12.1924 134.919 11.7473 135.503 11.379C136.116 11.0106 136.761 10.8264 137.436 10.8264C138.02 10.8264 138.541 11.0106 139.002 11.379C139.462 11.7166 139.907 12.2999 140.337 13.1287C140.798 13.9268 141.304 15.0012 141.857 16.3518C142.225 17.1806 142.563 17.9941 142.87 18.7922C143.207 19.5903 143.545 20.4345 143.883 21.3247L146.968 18.7462L147.612 11.4711H151.434L149.776 26.9421ZM85.8244 46.5809L76.7075 46.8111L75.9248 58H72.1491L73.5765 37.8323C73.6379 37.157 73.5458 36.6812 73.3002 36.4049C73.0853 36.1287 72.7477 35.9905 72.2872 35.9905C71.9802 35.9905 71.5965 36.0673 71.1361 36.2208C70.6756 36.3436 70.1231 36.5431 69.4785 36.8194L68.972 35.392C69.371 35.1464 69.8622 34.9162 70.4454 34.7013C71.0286 34.4557 71.6426 34.2562 72.2872 34.1027C72.9318 33.9492 73.5304 33.8725 74.083 33.8725C74.9425 33.8725 75.6178 34.0413 76.1089 34.379C76.6001 34.7166 76.9377 35.2385 77.1219 35.9445C77.3368 36.6198 77.3982 37.4793 77.3061 38.523C77.2447 39.5667 77.168 40.6104 77.0759 41.6541C77.0145 42.6977 76.9377 43.7568 76.8457 44.8312H85.9625L86.8374 34.6092H90.6131L89.0475 54.5466C89.0169 55.222 89.0782 55.7131 89.2317 56.0201C89.4159 56.327 89.7536 56.4805 90.2447 56.4805C90.6745 56.4805 91.1349 56.3731 91.6261 56.1582C92.1172 55.9433 92.6237 55.6824 93.1455 55.3754L93.7441 56.6647C93.3144 56.9717 92.7772 57.2786 92.1326 57.5856C91.5186 57.8926 90.8893 58.1381 90.2447 58.3223C89.6308 58.5372 89.0475 58.6446 88.495 58.6446C87.2671 58.6446 86.3769 58.2916 85.8244 57.5856C85.3026 56.8796 85.103 55.8205 85.2258 54.4085L85.8244 46.5809ZM115.95 54.6387C115.919 55.3447 115.981 55.8359 116.134 56.1122C116.318 56.3884 116.656 56.5266 117.147 56.5266C117.577 56.5266 118.037 56.4038 118.529 56.1582C119.02 55.8819 119.48 55.575 119.91 55.2373L120.693 56.3424C120.355 56.6493 119.895 56.987 119.311 57.3554C118.759 57.7237 118.145 58.0307 117.469 58.2763C116.825 58.5218 116.18 58.6446 115.536 58.6446C114.707 58.6446 114.016 58.4604 113.464 58.0921C112.942 57.7237 112.573 57.1865 112.358 56.4805C112.144 55.7745 112.082 54.961 112.174 54.0401L113.141 44.1865L112.819 44.1405L111.484 49.4817C111.146 50.863 110.762 52.1216 110.333 53.2574C109.903 54.3625 109.381 55.314 108.767 56.1122C108.184 56.9103 107.478 57.5396 106.649 58C105.851 58.4298 104.884 58.6446 103.748 58.6446C102.121 58.6446 100.786 58.1995 99.7422 57.3093C98.6985 56.4191 97.9311 55.222 97.44 53.7178C96.9488 52.183 96.7032 50.4793 96.7032 48.6068C96.7032 46.4581 96.9642 44.4782 97.486 42.6671C98.0078 40.856 98.7446 39.2904 99.6962 37.9705C100.648 36.6505 101.784 35.6375 103.103 34.9315C104.423 34.2255 105.866 33.8725 107.432 33.8725C108.567 33.8725 109.626 34.0106 110.609 34.2869C111.591 34.5632 112.358 34.8394 112.911 35.1157L116.042 34.0106L116.641 34.425L115.95 54.6387ZM104.669 55.7438C105.467 55.7438 106.142 55.575 106.695 55.2373C107.278 54.8689 107.8 54.255 108.261 53.3955C108.752 52.536 109.227 51.3849 109.688 49.9421C110.148 48.4687 110.67 46.6269 111.253 44.4168L113.095 37.0035C112.328 36.6045 111.484 36.2822 110.563 36.0366C109.642 35.7603 108.736 35.6222 107.846 35.6222C106.802 35.6222 105.851 35.9291 104.991 36.5431C104.132 37.157 103.395 38.0165 102.781 39.1216C102.167 40.2267 101.691 41.5773 101.354 43.1735C101.047 44.7391 100.893 46.4888 100.893 48.4227C100.893 50.0803 101.016 51.4616 101.262 52.5667C101.538 53.6411 101.952 54.4392 102.505 54.961C103.088 55.4829 103.809 55.7438 104.669 55.7438ZM136.222 46.3046C134.411 47.4097 132.891 48.3459 131.664 49.1133C130.436 49.8501 129.453 50.51 128.717 51.0933C128.011 51.6458 127.504 52.1523 127.197 52.6127C126.921 53.0732 126.783 53.5183 126.783 53.948C126.783 54.1936 126.844 54.4392 126.967 54.6848C127.12 54.8996 127.32 55.0838 127.566 55.2373L128.855 56.1122C128.763 56.8796 128.44 57.5089 127.888 58C127.366 58.4604 126.691 58.6907 125.862 58.6907C125.064 58.6907 124.388 58.4298 123.836 57.9079C123.314 57.3554 123.053 56.6954 123.053 55.928C123.053 54.9457 123.36 54.0248 123.974 53.1653C124.588 52.3058 125.478 51.4309 126.645 50.5407C127.811 49.6505 129.223 48.6989 130.881 47.6859L131.019 47.5018C129.822 47.5325 128.717 47.3329 127.704 46.9032C126.721 46.4427 125.939 45.7674 125.355 44.8772C124.772 43.987 124.481 42.9126 124.481 41.6541C124.481 40.2113 124.834 38.9067 125.54 37.7402C126.246 36.5431 127.259 35.6068 128.579 34.9315C129.898 34.2255 131.449 33.8725 133.229 33.8725C133.935 33.8725 134.626 33.9646 135.301 34.1487C135.976 34.3022 136.621 34.5171 137.235 34.7934L139.998 34.0106L140.78 34.379L139.445 54.5466C139.414 55.1913 139.476 55.6824 139.629 56.0201C139.813 56.327 140.12 56.4805 140.55 56.4805C141.011 56.4805 141.456 56.3731 141.885 56.1582C142.346 55.9433 142.822 55.6671 143.313 55.3294L144.05 56.3884C143.62 56.7568 143.098 57.1251 142.484 57.4935C141.901 57.8312 141.287 58.1074 140.642 58.3223C140.028 58.5372 139.445 58.6446 138.893 58.6446C137.634 58.6446 136.728 58.2916 136.176 57.5856C135.654 56.8796 135.455 55.8205 135.577 54.4085L136.222 46.3046ZM136.913 36.3589C136.299 36.0519 135.731 35.8524 135.209 35.7603C134.687 35.6375 134.089 35.5761 133.413 35.5761C131.97 35.5761 130.789 36.1133 129.868 37.1877C128.978 38.2314 128.532 39.6895 128.532 41.562C128.532 42.8819 128.885 43.941 129.592 44.7391C130.298 45.5372 131.234 45.9362 132.4 45.9362C132.953 45.9362 133.551 45.8135 134.196 45.5679C134.871 45.2916 135.577 44.8619 136.314 44.2786L136.913 36.3589ZM69.5763 79.3884C69.2387 79.6954 68.7629 80.0331 68.1489 80.4014C67.5657 80.7391 66.9364 81.0307 66.2611 81.2763C65.5858 81.5218 64.9258 81.6446 64.2812 81.6446C63.084 81.6446 62.1938 81.3223 61.6106 80.6777C61.0273 80.0331 60.7971 79.0815 60.9199 77.8229L62.117 63.8713C62.2705 62.2444 62.1938 61.124 61.8868 60.51C61.5799 59.8961 60.9813 59.5891 60.0911 59.5891C59.385 59.5891 58.7865 59.7733 58.2953 60.1417C57.8349 60.51 57.4205 61.0933 57.0521 61.8914C56.7144 62.6588 56.3154 63.6871 55.8549 64.9764L50.4216 81H47.3827L48.1194 60.8323C48.1501 60.157 48.0734 59.6812 47.8892 59.4049C47.705 59.1287 47.3673 58.9905 46.8762 58.9905C46.5692 58.9905 46.1855 59.0673 45.7251 59.2208C45.2953 59.3436 44.7581 59.5431 44.1135 59.8194L43.561 58.392C43.8986 58.2078 44.3437 57.9929 44.8963 57.7473C45.4795 57.5018 46.0934 57.3022 46.7381 57.1487C47.4134 56.9646 48.058 56.8725 48.6719 56.8725C49.9919 56.8725 50.8974 57.2715 51.3886 58.0696C51.8797 58.8678 52.0486 60.0342 51.8951 61.5691L50.744 74.0012L51.0202 74.0472L54.3815 63.9173C54.934 62.2597 55.5019 60.9244 56.0852 59.9114C56.6991 58.8678 57.4205 58.1003 58.2493 57.6092C59.0781 57.118 60.0757 56.8725 61.2422 56.8725C62.6542 56.8725 63.7133 57.1794 64.4193 57.7934C65.156 58.4073 65.6318 59.3129 65.8467 60.51C66.0923 61.6765 66.1383 63.1192 65.9848 64.8382L64.9258 77.5927C64.8644 78.2987 64.8951 78.8052 65.0179 79.1122C65.1714 79.4191 65.509 79.5726 66.0309 79.5726C66.4913 79.5726 66.9671 79.4498 67.4583 79.2042C67.9801 78.9587 68.4559 78.6671 68.8856 78.3294L69.5763 79.3884ZM81.5034 81.6446C79.4774 81.6446 77.7584 81.1688 76.3464 80.2172C74.9343 79.2349 73.8599 77.8843 73.1232 76.1653C72.3865 74.4156 72.0181 72.405 72.0181 70.1334C72.0181 68.3837 72.2177 66.7107 72.6167 65.1145C73.0158 63.5183 73.6297 62.1062 74.4585 60.8784C75.318 59.6505 76.4384 58.6836 77.8198 57.9776C79.2011 57.2408 80.8741 56.8725 82.8387 56.8725C84.8647 56.8725 86.5837 57.3483 87.9957 58.2999C89.4385 59.2208 90.5282 60.5407 91.2649 62.2597C92.0323 63.948 92.416 65.9433 92.416 68.2456C92.416 69.9953 92.2165 71.6836 91.8174 73.3105C91.4184 74.9067 90.7738 76.3341 89.8836 77.5927C89.024 78.8205 87.9036 79.8028 86.5223 80.5396C85.1409 81.2763 83.468 81.6446 81.5034 81.6446ZM81.7797 79.8949C83.4373 79.8949 84.7112 79.3731 85.6014 78.3294C86.5223 77.2857 87.1669 75.889 87.5353 74.1393C87.9036 72.3589 88.0878 70.379 88.0878 68.1995C88.0878 66.2042 87.919 64.5006 87.5813 63.0885C87.2436 61.6458 86.6758 60.5407 85.8776 59.7733C85.0795 58.9752 83.9745 58.5761 82.5624 58.5761C81.3346 58.5761 80.3216 58.8831 79.5235 59.497C78.7253 60.0803 78.0961 60.9091 77.6356 61.9835C77.1752 63.0271 76.8528 64.2704 76.6687 65.7131C76.4845 67.1251 76.3924 68.6293 76.3924 70.2255C76.3924 72.2515 76.5766 73.9858 76.9449 75.4286C77.344 76.8713 77.9426 77.9764 78.7407 78.7438C79.5388 79.5112 80.5518 79.8949 81.7797 79.8949ZM98.9735 59.7273C99.7409 59.1747 100.616 58.6989 101.598 58.2999C102.611 57.9008 103.716 57.5938 104.913 57.379C106.11 57.1334 107.384 57.0106 108.735 57.0106C109.84 57.0106 110.807 57.1027 111.636 57.2869C112.465 57.4711 113.14 57.732 113.662 58.0696C114.214 58.4073 114.583 58.8217 114.767 59.3129L113.938 77.5006C113.907 78.1759 113.969 78.6824 114.122 79.0201C114.306 79.327 114.644 79.4805 115.135 79.4805C115.534 79.4805 115.964 79.3884 116.424 79.2042C116.885 79.0201 117.376 78.7745 117.898 78.4675L118.496 79.7568C118.067 80.0331 117.545 80.3247 116.931 80.6316C116.348 80.9079 115.734 81.1381 115.089 81.3223C114.475 81.5372 113.892 81.6446 113.339 81.6446C112.112 81.6446 111.237 81.307 110.715 80.6316C110.193 79.9256 109.963 78.8512 110.024 77.4085L111.037 60.464C110.546 60.1877 109.794 59.9882 108.781 59.8654C107.768 59.7426 106.724 59.6812 105.65 59.6812C105.466 61.2774 105.22 62.9964 104.913 64.8382C104.606 66.6493 104.284 68.4297 103.946 70.1795C103.609 71.9292 103.271 73.464 102.933 74.7839C102.319 77.1783 101.583 78.928 100.723 80.0331C99.8637 81.1074 98.8353 81.6446 97.6382 81.6446C97.0856 81.6446 96.5638 81.5218 96.0726 81.2763C95.6122 81.0307 95.2438 80.693 94.9676 80.2633C94.722 79.8028 94.5992 79.2963 94.5992 78.7438C94.5992 78.0685 94.8141 77.4545 95.2438 76.902C95.6736 76.3188 96.2108 75.9044 96.8554 75.6588L99.1116 77.8689C99.5107 77.6234 99.8637 77.1936 100.171 76.5797C100.508 75.9351 100.831 75.0909 101.138 74.0472C101.322 73.4333 101.521 72.6045 101.736 71.5608C101.982 70.4864 102.212 69.2892 102.427 67.9693C102.672 66.6493 102.903 65.2833 103.118 63.8713C103.332 62.4593 103.532 61.0779 103.716 59.7273C103.133 59.7887 102.411 59.9268 101.552 60.1417C100.692 60.3258 100.017 60.5407 99.526 60.7863L98.9735 59.7273ZM126.648 74.1854H126.925C127.416 73.0496 127.907 71.9599 128.398 70.9162C128.92 69.8418 129.426 68.7828 129.917 67.7391C130.439 66.6954 130.961 65.6977 131.483 64.7462C132.005 63.7639 132.527 62.8123 133.048 61.8914C133.693 60.7556 134.322 59.8194 134.936 59.0826C135.55 58.3459 136.18 57.7934 136.824 57.425C137.499 57.0567 138.19 56.8725 138.896 56.8725C139.878 56.8725 140.615 57.1487 141.106 57.7013C141.628 58.2231 141.889 58.8217 141.889 59.497C141.889 60.2031 141.69 60.8016 141.291 61.2928C140.922 61.7839 140.416 62.1983 139.771 62.536L138.896 61.3849C138.712 61.1393 138.497 60.9551 138.252 60.8323C138.037 60.7096 137.76 60.6482 137.423 60.6482C136.993 60.6482 136.533 60.817 136.041 61.1547C135.581 61.4923 135.105 62.0142 134.614 62.7202C134.307 63.1806 133.954 63.7332 133.555 64.3778C133.187 64.9917 132.803 65.6977 132.404 66.4959C132.864 67.0484 133.263 67.5856 133.601 68.1074C133.969 68.6293 134.338 69.2125 134.706 69.8571C135.105 70.4711 135.55 71.2385 136.041 72.1594C136.747 73.4793 137.331 74.5844 137.791 75.4746C138.252 76.3341 138.62 77.0094 138.896 77.5006C139.203 77.9917 139.464 78.3447 139.679 78.5596C139.894 78.7438 140.109 78.8359 140.324 78.8359C140.661 78.8359 141.03 78.621 141.429 78.1913C141.858 77.7615 142.227 77.3778 142.534 77.0401L143.363 78.0071C142.902 78.5596 142.442 79.1122 141.981 79.6647C141.521 80.2172 141.014 80.6777 140.462 81.046C139.94 81.4451 139.341 81.6446 138.666 81.6446C138.083 81.6446 137.53 81.4298 137.008 81C136.517 80.6009 135.949 79.8642 135.305 78.7898C134.691 77.6848 133.893 76.1346 132.91 74.1393C132.634 73.5254 132.358 72.9882 132.082 72.5277C131.805 72.0673 131.529 71.6529 131.253 71.2845C131.007 70.9162 130.762 70.5785 130.516 70.2715C129.933 71.4687 129.365 72.6812 128.812 73.9091C128.26 75.137 127.738 76.3495 127.247 77.5466C126.786 78.7438 126.341 79.8949 125.912 81H122.827L124.208 60.7402C124.269 60.0956 124.177 59.6352 123.932 59.3589C123.717 59.0519 123.364 58.8985 122.873 58.8985C122.535 58.8985 122.136 58.9598 121.675 59.0826C121.215 59.2054 120.678 59.4049 120.064 59.6812L119.603 58.392C119.972 58.1771 120.432 57.9622 120.985 57.7473C121.568 57.5018 122.182 57.3022 122.827 57.1487C123.471 56.9646 124.1 56.8725 124.714 56.8725C125.605 56.8725 126.295 57.0567 126.786 57.425C127.308 57.7627 127.661 58.2845 127.845 58.9905C128.03 59.6659 128.06 60.5254 127.937 61.5691L126.648 74.1854ZM165.053 77.6387C165.022 78.3447 165.083 78.8359 165.237 79.1122C165.421 79.3884 165.759 79.5266 166.25 79.5266C166.679 79.5266 167.14 79.4038 167.631 79.1582C168.122 78.8819 168.583 78.575 169.012 78.2373L169.795 79.3424C169.458 79.6493 168.997 79.987 168.414 80.3554C167.861 80.7237 167.247 81.0307 166.572 81.2763C165.927 81.5218 165.283 81.6446 164.638 81.6446C163.809 81.6446 163.119 81.4604 162.566 81.0921C162.044 80.7237 161.676 80.1865 161.461 79.4805C161.246 78.7745 161.185 77.961 161.277 77.0401L162.244 67.1865L161.921 67.1405L160.586 72.4817C160.249 73.863 159.865 75.1216 159.435 76.2574C159.005 77.3625 158.483 78.314 157.87 79.1122C157.286 79.9103 156.58 80.5396 155.751 81C154.953 81.4298 153.986 81.6446 152.851 81.6446C151.224 81.6446 149.888 81.1995 148.845 80.3093C147.801 79.4191 147.034 78.222 146.543 76.7178C146.051 75.183 145.806 73.4793 145.806 71.6068C145.806 69.4581 146.067 67.4782 146.589 65.6671C147.11 63.856 147.847 62.2904 148.799 60.9705C149.75 59.6505 150.886 58.6375 152.206 57.9315C153.526 57.2255 154.969 56.8725 156.534 56.8725C157.67 56.8725 158.729 57.0106 159.711 57.2869C160.694 57.5632 161.461 57.8394 162.014 58.1157L165.145 57.0106L165.743 57.425L165.053 77.6387ZM153.772 78.7438C154.57 78.7438 155.245 78.575 155.798 78.2373C156.381 77.8689 156.903 77.255 157.363 76.3955C157.854 75.536 158.33 74.3849 158.79 72.9421C159.251 71.4687 159.773 69.6269 160.356 67.4168L162.198 60.0035C161.43 59.6045 160.586 59.2822 159.665 59.0366C158.744 58.7603 157.839 58.6222 156.949 58.6222C155.905 58.6222 154.953 58.9291 154.094 59.5431C153.234 60.157 152.498 61.0165 151.884 62.1216C151.27 63.2267 150.794 64.5773 150.456 66.1735C150.149 67.7391 149.996 69.4888 149.996 71.4227C149.996 73.0803 150.119 74.4616 150.364 75.5667C150.641 76.6411 151.055 77.4392 151.607 77.961C152.191 78.4829 152.912 78.7438 153.772 78.7438Z" fill="black"/>
<path d="M184.314 26.3607C180.333 22.6531 178.306 18.0681 176.898 12.5658C176.615 11.4602 176.137 3.36432 179.696 5.09145C181.463 5.94903 182.935 8.29713 183.294 10.1676C183.338 10.3983 182.874 11.1898 183.493 9.52807C184.315 7.32572 185.455 5.3138 187.151 3.65255C189.756 1.10018 193.497 -0.18307 196.583 2.45346C200.064 5.42704 199.335 9.87992 197.223 13.3851C194.909 17.2241 191.548 20.765 188.21 23.7372C187.081 24.7419 187.732 24.2023 184.314 26.3607Z" stroke="#CF0303" stroke-width="1.07918" stroke-linecap="round"/>
<path d="M54.2115 -18C44.7838 -11.9209 36.8396 -2.8416 31.0691 6.74114C26.1394 14.9275 22.9661 23.2872 21.1167 32.6814C18.5529 45.7042 17.9052 60.3248 21.5164 73.2304C23.1356 79.0171 26.3318 83.2086 30.4896 87.2797C31.9304 88.6905 30.4109 86.0441 30.1098 85.2413" stroke="black" stroke-width="1.07918" stroke-linecap="round"/>
<path d="M31.9504 88.1845C30.6455 85.5125 29.4345 82.7971 28.7129 79.9108" stroke="black" stroke-width="1.07918" stroke-linecap="round"/>
<path d="M31.5904 88.5442C29.7714 88.1006 23.9683 87.689 22.957 85.6664" stroke="black" stroke-width="1.07918" stroke-linecap="round"/>
</g>
<defs>
<clipPath id="clip0_62_121">
<rect width="200" height="99" fill="white"/>
</clipPath>
</defs>
</svg>
