<svg width="46" height="46" viewBox="0 0 46 46" fill="none" xmlns="http://www.w3.org/2000/svg">
<path fill-rule="evenodd" clip-rule="evenodd" d="M15.8726 0.228358C11.9847 0.917099 8.69553 2.60439 5.82673 5.38212C1.96233 9.12377 0 13.7655 0 19.1648C0 24.5533 1.97143 29.218 5.82673 32.9517C8.76357 35.7957 12.15 37.4895 16.2319 38.1561C17.6286 38.3842 20.5701 38.382 22.0974 38.1519C25.0791 37.7024 28.0823 36.4662 30.4678 34.7063L31.2868 34.102L37.1163 39.919C40.3225 43.1183 43.0635 45.7954 43.2074 45.8682C43.3514 45.9409 43.7557 46.0002 44.1058 46C45.2751 45.9992 45.9992 45.2751 46 44.1057C46.0002 43.7555 45.9409 43.3512 45.8682 43.2072C45.7954 43.0633 43.1185 40.3221 39.9194 37.1156L34.1029 31.2857L34.7071 30.4666C36.0024 28.7105 37.1074 26.4114 37.7223 24.1921C38.6434 20.8683 38.5347 16.583 37.4452 13.2566C36.4749 10.2942 35.1464 8.09767 32.95 5.82371C30.0552 2.82662 26.4698 0.921532 22.4219 0.229436C20.6354 -0.0760587 17.5936 -0.0765383 15.8726 0.228358ZM17.9689 3.96977C11.9413 4.39183 6.63413 8.54369 4.67085 14.3728C3.69465 17.2714 3.69657 21.0908 4.67576 23.9569C5.98425 27.7872 8.82526 31.0601 12.3986 32.8539C15.7922 34.5574 20.3889 34.8768 23.9586 33.657C28.5384 32.0922 32.0932 28.5371 33.658 23.9569C34.639 21.0858 34.639 17.2439 33.658 14.3728C31.5997 8.34805 26.1363 4.20351 19.8856 3.92485C19.4574 3.90568 18.5949 3.92592 17.9689 3.96977Z" fill="#CF0303"/>
</svg>
